<svg xmlns="http://www.w3.org/2000/svg" version="1.1"
    xmlns:xlink="http://www.w3.org/1999/xlink"
    xmlns:svgjs="http://svgjs.dev/svgjs" width="1000" height="1000" viewBox="0 0 1000 1000">
    <rect width="1000" height="1000" fill="#000000"></rect>
    <g transform="matrix(0.7,0,0,0.7,149.57575757575756,282.1265587044535)">
        <svg viewBox="0 0 396 247" data-background-color="#000000" preserveAspectRatio="xMidYMid meet" height="623" width="1000"
            xmlns="http://www.w3.org/2000/svg"
            xmlns:xlink="http://www.w3.org/1999/xlink">
            <g id="tight-bounds" transform="matrix(1,0,0,1,0.2400000000000091,-0.09999999999999432)">
                <svg viewBox="0 0 395.52 247.2" height="247.2" width="395.52">
                    <g>
                        <svg></svg>
                    </g>
                    <g>
                        <svg viewBox="0 0 395.52 247.2" height="247.2" width="395.52">
                            <g transform="matrix(1,0,0,1,39.55199999999999,90.66193677204657)">
                                <svg viewBox="0 0 316.416 65.87612645590683" height="65.87612645590683" width="316.416">
                                    <g>
                                        <svg viewBox="0 0 316.416 65.87612645590683" height="65.87612645590683" width="316.416">
                                            <g>
                                                <svg viewBox="0 0 316.416 65.87612645590683" height="65.87612645590683" width="316.416">
                                                    <g id="textblocktransform">
                                                        <svg viewBox="0 0 316.416 65.87612645590683" height="65.87612645590683" width="316.416" id="textblock">
                                                            <g>
                                                                <svg viewBox="0 0 316.416 65.87612645590683" height="65.87612645590683" width="316.416">
                                                                    <g transform="matrix(1,0,0,1,0,0)">
                                                                        <svg width="316.416" viewBox="1.75 -37.54999923706055 240.3800048828125 50.04999923706055" height="65.87612645590683" data-palette-color="#01ff70">
                                                                            <path d="M1.75 0L11.75 0 11.75-2.5 7.35-2.5 7.35-16.2 13.55-16.2 13.55-18.75 7.35-18.75 7.35-25.9Q7.35-28.05 8-29.73 8.65-31.4 9.8-32.6L9.8-32.6Q10.9-33.75 12.38-34.38 13.85-35 15.55-35.05L15.55-35.05 15.55-37.55Q13.3-37.45 11.33-36.68 9.35-35.9 7.9-34.4L7.9-34.4Q6.45-32.95 5.6-30.8 4.75-28.65 4.75-25.85L4.75-25.85 4.75-18.75 1.75-18.75 1.75-16.2 4.8-16.2 4.8-2.5 1.75-2.5 1.75 0ZM17.3 0L27.3 0 27.3-2.5 23.75-2.5 23.75-9.95Q23.75-11.5 24.42-12.8 25.1-14.1 26.25-14.95L26.25-14.95Q27.2-15.7 28.45-16.13 29.7-16.55 31.15-16.6L31.15-16.6 31.3-19.15Q30.25-19.15 29.17-18.8 28.1-18.45 27.05-17.75L27.05-17.75Q26-17.1 25.1-16.13 24.2-15.15 23.6-13.9L23.6-13.9Q23.55-14.85 23.55-15 23.55-15.15 23.5-16.15L23.5-16.15 23.35-18.75 17.65-18.75 17.65-16.25 21.15-16.25 21.15-2.5 17.3-2.5 17.3 0ZM34.8 0L44.8 0 44.8-2.5 41.15-2.5 41.15-18.75 34.8-18.75 34.8-16.25 38.55-16.25 38.55-2.5 34.8-2.5 34.8 0ZM41.75-25.55L41.75-25.55Q41.75-26.35 41.17-26.9 40.59-27.45 39.9-27.45L39.9-27.45Q39.2-27.45 38.62-26.9 38.05-26.35 38.05-25.55L38.05-25.55Q38.05-24.75 38.62-24.2 39.2-23.65 39.9-23.65L39.9-23.65Q40.59-23.65 41.17-24.2 41.75-24.75 41.75-25.55ZM65.74 0L71.79 0 71.79-2.5 68.09-2.5 68.09-37.5 61.99-37.5 61.99-35 65.49-35 65.49-18.9Q65.49-17.85 65.49-17.05 65.49-16.25 65.54-15.15L65.54-15.15Q65.24-15.85 64.67-16.5 64.09-17.15 63.09-17.8L63.09-17.8Q62.09-18.4 60.84-18.8 59.59-19.2 58.19-19.2L58.19-19.2Q56.09-19.2 54.29-18.43 52.49-17.65 51.19-16.3L51.19-16.3Q49.84-14.95 49.07-13.18 48.29-11.4 48.29-9.4L48.29-9.4Q48.29-7.4 49.07-5.6 49.84-3.8 51.19-2.5L51.19-2.5Q52.49-1.15 54.29-0.38 56.09 0.4 58.19 0.4L58.19 0.4Q59.69 0.4 60.97 0 62.24-0.4 63.24-1L63.24-1Q64.19-1.6 64.84-2.33 65.49-3.05 65.79-3.75L65.79-3.75Q65.79-3.2 65.77-2.75 65.74-2.3 65.74-1.75L65.74-1.75 65.74 0ZM58.19-16.65L58.19-16.65Q59.64-16.65 60.94-16.13 62.24-15.6 63.19-14.75L63.19-14.75Q64.24-13.75 64.87-12.38 65.49-11 65.49-9.4L65.49-9.4Q65.49-7.85 64.89-6.48 64.29-5.1 63.24-4.15L63.24-4.15Q62.24-3.2 60.97-2.68 59.69-2.15 58.19-2.15L58.19-2.15Q56.69-2.15 55.39-2.68 54.09-3.2 53.14-4.15L53.14-4.15Q52.09-5.1 51.52-6.48 50.94-7.85 50.94-9.4L50.94-9.4Q50.94-10.9 51.47-12.23 51.99-13.55 52.94-14.55L52.94-14.55Q53.94-15.5 55.27-16.07 56.59-16.65 58.19-16.65ZM92.74 0L98.79 0 98.79-2.5 95.09-2.5 95.09-18.75 92.94-18.75Q92.89-17.75 92.84-16.78 92.79-15.8 92.74-14.85L92.74-14.85Q92.04-16.55 90.07-17.88 88.09-19.2 85.19-19.2L85.19-19.2Q83.09-19.2 81.29-18.4 79.49-17.6 78.19-16.25L78.19-16.25Q76.84-14.95 76.07-13.15 75.29-11.35 75.29-9.35L75.29-9.35Q75.29-7.35 76.07-5.58 76.84-3.8 78.19-2.5L78.19-2.5Q79.49-1.15 81.29-0.38 83.09 0.4 85.19 0.4L85.19 0.4Q86.69 0.4 87.97 0 89.24-0.4 90.24-1L90.24-1Q91.19-1.6 91.84-2.33 92.49-3.05 92.79-3.75L92.79-3.75Q92.79-3.2 92.77-2.75 92.74-2.3 92.74-1.75L92.74-1.75 92.74 0ZM85.19-16.65L85.19-16.65Q86.69-16.65 87.99-16.1 89.29-15.55 90.34-14.6L90.34-14.6Q91.34-13.65 91.92-12.3 92.49-10.95 92.49-9.4L92.49-9.4Q92.49-7.85 91.92-6.5 91.34-5.15 90.29-4.2L90.29-4.2Q89.29-3.25 87.99-2.7 86.69-2.15 85.19-2.15L85.19-2.15Q83.74-2.15 82.49-2.65 81.24-3.15 80.29-4L80.29-4Q79.19-5 78.57-6.4 77.94-7.8 77.94-9.4L77.94-9.4Q77.94-10.9 78.44-12.2 78.94-13.5 79.89-14.45L79.89-14.45Q80.84-15.5 82.22-16.07 83.59-16.65 85.19-16.65ZM105.14 12.5L115.14 12.5 115.14 10 112.14 10Q115.44 3.4 118.71-3.13 121.99-9.65 125.29-16.25L125.29-16.25 129.04-16.25 129.04-18.75 119.59-18.75 119.59-16.25 122.54-16.25Q120.74-12.75 118.99-9.25 117.24-5.75 115.79-2.35L115.79-2.35Q114.24-5.85 112.49-9.3 110.74-12.75 108.99-16.25L108.99-16.25 112.04-16.25 112.04-18.75 102.29-18.75 102.29-16.25 106.24-16.25Q108.29-12.15 110.31-8.08 112.34-4 114.39 0.1L114.39 0.1Q113.14 2.55 111.91 5.03 110.69 7.5 109.44 10L109.44 10 105.14 10 105.14 12.5ZM135.79 0L155.79 0 155.79-2.55 135.79-2.55 135.79 0ZM162.53 0L171.33 0Q176.63 0 180.31-1.63 183.98-3.25 186.28-5.8L186.28-5.8Q188.58-8.3 189.61-11.4 190.63-14.5 190.63-17.45L190.63-17.45Q190.63-21.5 189.23-24.73 187.83-27.95 185.43-30.25L185.43-30.25Q183.03-32.55 179.83-33.77 176.63-35 173.03-35L173.03-35 162.53-35 162.53-32.5 165.48-32.5 165.48-2.5 162.53-2.5 162.53 0ZM168.08-2.5L168.08-32.5 172.88-32.5Q176.03-32.5 178.78-31.45 181.53-30.4 183.63-28.5L183.63-28.5Q185.68-26.5 186.86-23.73 188.03-20.95 188.03-17.5L188.03-17.5Q188.03-14.5 187.01-11.8 185.98-9.1 184.03-7.05L184.03-7.05Q181.98-5 179.01-3.75 176.03-2.5 172.18-2.5L172.18-2.5 168.08-2.5ZM203.98-16.65L203.98-16.65Q205.68-16.65 207.08-15.7 208.48-14.75 209.33-13.25L209.33-13.25Q206.18-12.05 203.08-10.85 199.98-9.65 196.88-8.45L196.88-8.45Q196.63-9.95 197.03-11.4 197.43-12.85 198.33-14L198.33-14Q199.28-15.2 200.76-15.93 202.23-16.65 203.98-16.65ZM210.48-2.25L210.48-2.25 208.88-4.15Q207.93-3.2 206.68-2.68 205.43-2.15 203.98-2.15L203.98-2.15Q201.83-2.15 200.16-3.2 198.48-4.25 197.63-6L197.63-6Q201.38-7.45 205.13-8.9 208.88-10.35 212.63-11.8L212.63-11.8Q212.18-13.4 211.36-14.75 210.53-16.1 209.48-17.05L209.48-17.05Q208.33-18.05 206.93-18.63 205.53-19.2 203.98-19.2L203.98-19.2Q201.93-19.2 200.13-18.43 198.33-17.65 197.03-16.35L197.03-16.35Q195.68-15 194.91-13.2 194.13-11.4 194.13-9.4L194.13-9.4Q194.13-7.35 194.91-5.58 195.68-3.8 197.03-2.45L197.03-2.45Q198.33-1.15 200.13-0.38 201.93 0.4 203.98 0.4L203.98 0.4Q205.93 0.4 207.58-0.3 209.23-1 210.48-2.25ZM238.33-16.25L238.33-16.25 242.13-16.25 242.13-18.75 232.68-18.75 232.68-16.25 235.63-16.25Q233.93-13 232.25-9.78 230.58-6.55 229.28-3.5L229.28-3.5Q227.88-6.65 226.25-9.85 224.63-13.05 222.93-16.25L222.93-16.25 226.03-16.25 226.03-18.75 216.28-18.75 216.28-16.25 220.23-16.25Q222.48-11.9 224.73-7.58 226.98-3.25 229.28 1.15L229.28 1.15Q231.53-3.25 233.8-7.55 236.08-11.85 238.33-16.25Z" opacity="1" transform="matrix(1,0,0,1,0,0)" fill="#ffffff" class="undefined-text-0" data-fill-palette-color="primary" id="text-0"></path>
                                                                        </svg>
                                                                    </g>
                                                                </svg>
                                                            </g>
                                                        </svg>
                                                    </g>
                                                </svg>
                                            </g>
                                            <g></g>
                                        </svg>
                                    </g>
                                </svg>
                            </g>
                            <g mask="url(&quot;#253b987d-f407-41ba-803f-30765277c0b9&quot;)">
                                <g transform="matrix(2.452, 0, 0, 2.452, 76.48804818725586, 1)">
                                    <svg version="1.1"
                                        xmlns="http://www.w3.org/2000/svg"
                                        xmlns:xlink="http://www.w3.org/1999/xlink" x="0" y="0" viewBox="6.804999828338623 0.10000000149011612 98.91676330566406 100" enable-background="new 6.805 0.1 98.917 100" xml:space="preserve" width="98.91676330566406" height="100" class="icon-none" data-fill-palette-color="accent" id="none">
                                        <g fill="#01ff70" data-fill-palette-color="accent">
                                            <path d="M88.094 19.809c-0.259 0-0.512 0.005-0.776 0.014-3.326 0.109-6.367 0.768-8.256 1.228v-6.07c0-3.492-2.165-8.353-12.481-11.687C60.196 1.236 51.796 0.1 42.934 0.1c-8.864 0-17.261 1.135-23.646 3.194C8.969 6.626 6.805 11.489 6.805 14.981V82.84c0 4.877 4.288 9.396 12.074 12.722 6.845 2.927 15.387 4.538 24.055 4.538 8.667 0 17.208-1.611 24.055-4.538 7.785-3.326 12.072-7.847 12.072-12.722v-6.182c0.642-0.7 1.316-0.902 3.41-1.344 1.368-0.289 3.067-0.646 4.906-1.421 10.398-4.369 16.721-12.648 17.807-23.312l0.051-0.477c0.556-5.348 1.854-17.871-4.732-25.176C97.484 21.581 93.195 19.809 88.094 19.809zM100.457 50.099c-0.978 9.583-6.844 16.017-14.923 19.412-4.029 1.695-7.49 0.874-10.314 4.322-0.311 0.383-0.924 1.436-0.913 2.782v6.225c0 5.595-14.045 12.507-31.374 12.507-17.328 0-31.376-6.912-31.376-12.507v-67.86c0-5.591 14.048-10.127 31.376-10.127 17.329 0 31.374 4.535 31.374 10.127v7.518c0.131 1.797 0.971 3.702 3.199 3.702 0.325 0 0.685-0.039 1.073-0.128 1.194-0.272 4.834-1.363 8.895-1.498 0.212-0.005 0.417-0.01 0.62-0.01C103.507 24.564 101.054 44.24 100.457 50.099z" fill="#ffffff" data-fill-palette-color="accent"></path>
                                            <path d="M85.402 29.776c-1.424 0-3.051 0.119-4.908 0.298-2.529 0.248-5.681 1.22-6.186 4.569v27.709c0 0-0.016 3.438 3.149 3.74 0.101 0.009 0.214 0.014 0.334 0.014 1.967 0 6.328-1.248 8.504-2.632 11.171-7.101 9.674-23.745 6.822-29.687C91.782 30.702 89.384 29.776 85.402 29.776zM79.062 61.164V35.288c0.228-0.134 0.818-0.376 1.894-0.479 1.968-0.191 3.339-0.277 4.447-0.277h0.003c1.75 0 2.48 0.228 2.761 0.366 0.127 0.062 0.315 0.154 0.583 0.776l0.039 0.09 0.041 0.084c0.897 1.87 2.015 6.559 1.411 11.809-0.433 3.779-1.913 8.896-6.497 11.81C82.69 60.134 80.545 60.836 79.062 61.164z" fill="#ffffff" data-fill-palette-color="accent"></path>
                                            <path d="M65.532 11.81c-0.583-0.305-1.301-0.082-1.606 0.5-0.306 0.582-0.082 1.299 0.499 1.604 1.386 0.729 1.875 1.382 1.875 1.753 0 0.366-0.502 1.062-2.058 1.845-3.665-2.449-11.825-4.152-21.307-4.152-9.483 0-17.644 1.703-21.307 4.152-1.56-0.782-2.062-1.48-2.062-1.845 0-0.372 0.496-1.029 1.883-1.757 0.583-0.304 0.806-1.023 0.501-1.604-0.305-0.581-1.023-0.805-1.606-0.5-2.093 1.101-3.154 2.4-3.154 3.863 0 2.355 2.719 4.257 8.082 5.645 4.734 1.225 11.006 1.9 17.664 1.9 6.656 0 12.928-0.674 17.659-1.9 5.364-1.388 8.084-3.29 8.084-5.646C68.677 14.205 67.617 12.908 65.532 11.81z" fill="#ffffff" data-fill-palette-color="accent"></path>
                                        </g>
                                    </svg>
                                </g>
                            </g>
                        </svg>
                    </g>
                    <defs>
                        <mask id="253b987d-f407-41ba-803f-30765277c0b9">
                            <rect width="640" height="400" fill="white"></rect>
                            <rect width="348.05760000000004" height="96.97967131431615" fill="black" y="75.11016434284193" x="23.731199999999973" id="transform-me"></rect>
                        </mask>
                    </defs>
                </svg>
                <rect width="395.52" height="247.2" fill="none" stroke="none" visibility="hidden"></rect>
            </g>
        </svg>
    </g>
</svg>